<svg width="118" height="26" viewBox="0 0 118 26" fill="none" xmlns="http://www.w3.org/2000/svg">
<path d="M17.915 22.582C15.913 24.558 13.469 25.546 10.583 25.546C7.697 25.546 5.253 24.558 3.251 22.582C1.275 20.58 0.287 18.136 0.287 15.25C0.287 12.364 1.275 9.933 3.251 7.957C5.253 5.955 7.697 4.954 10.583 4.954C13.469 4.954 15.913 5.955 17.915 7.957C19.917 9.933 20.918 12.364 20.918 15.25C20.918 18.136 19.917 20.58 17.915 22.582ZM6.8 19.111C7.814 20.125 9.075 20.632 10.583 20.632C12.091 20.632 13.352 20.125 14.366 19.111C15.38 18.097 15.887 16.81 15.887 15.25C15.887 13.69 15.38 12.403 14.366 11.389C13.352 10.375 12.091 9.868 10.583 9.868C9.075 9.868 7.814 10.375 6.8 11.389C5.812 12.403 5.318 13.69 5.318 15.25C5.318 16.81 5.812 18.097 6.8 19.111ZM37.3273 5.5H42.3583V25H37.3273V22.816C36.1053 24.636 34.1683 25.546 31.5163 25.546C29.3843 25.546 27.6163 24.831 26.2123 23.401C24.8343 21.971 24.1453 19.995 24.1453 17.473V5.5H29.1763V16.849C29.1763 18.149 29.5273 19.15 30.2293 19.852C30.9313 20.528 31.8673 20.866 33.0373 20.866C34.3373 20.866 35.3773 20.463 36.1573 19.657C36.9373 18.851 37.3273 17.642 37.3273 16.03V5.5ZM57.808 4.954C59.94 4.954 61.695 5.669 63.073 7.099C64.477 8.529 65.179 10.505 65.179 13.027V25H60.148V13.651C60.148 12.351 59.797 11.363 59.095 10.687C58.393 9.985 57.457 9.634 56.287 9.634C54.987 9.634 53.947 10.037 53.167 10.843C52.387 11.649 51.997 12.858 51.997 14.47V25H46.966V5.5H51.997V7.684C53.219 5.864 55.156 4.954 57.808 4.954ZM80.6288 10.336H76.2218V18.448C76.2218 19.124 76.3908 19.618 76.7288 19.93C77.0668 20.242 77.5608 20.424 78.2108 20.476C78.8608 20.502 79.6668 20.489 80.6288 20.437V25C77.1708 25.39 74.7268 25.065 73.2968 24.025C71.8928 22.985 71.1908 21.126 71.1908 18.448V10.336H67.7978V5.5H71.1908V1.561L76.2218 0.0399982V5.5H80.6288V10.336ZM87.8176 17.317C88.4936 19.761 90.3266 20.983 93.3166 20.983C95.2406 20.983 96.6966 20.333 97.6846 19.033L101.741 21.373C99.8166 24.155 96.9826 25.546 93.2386 25.546C90.0146 25.546 87.4276 24.571 85.4776 22.621C83.5276 20.671 82.5526 18.214 82.5526 15.25C82.5526 12.312 83.5146 9.868 85.4386 7.918C87.3626 5.942 89.8326 4.954 92.8486 4.954C95.7086 4.954 98.0616 5.942 99.9076 7.918C101.78 9.894 102.716 12.338 102.716 15.25C102.716 15.9 102.651 16.589 102.521 17.317H87.8176ZM87.7396 13.417H97.6846C97.3986 12.091 96.8006 11.103 95.8906 10.453C95.0066 9.803 93.9926 9.478 92.8486 9.478C91.4966 9.478 90.3786 9.829 89.4946 10.531C88.6106 11.207 88.0256 12.169 87.7396 13.417ZM111.259 8.854C111.727 7.606 112.494 6.67 113.56 6.046C114.652 5.422 115.861 5.11 117.187 5.11V10.726C115.653 10.544 114.275 10.856 113.053 11.662C111.857 12.468 111.259 13.807 111.259 15.679V25H106.228V5.5H111.259V8.854Z" fill="#F27C0F"/>
</svg>
